<svg width="24" height="24" viewBox="0 0 24 24" fill="none" xmlns="http://www.w3.org/2000/svg">
<path fill-rule="evenodd" clip-rule="evenodd" d="M5.85157 7.90316C6.19968 4.7702 8.84783 2.4 12.0001 2.4C15.1523 2.4 17.8004 4.7702 18.1486 7.90316L18.4066 10.2249C18.5258 11.2643 18.8642 12.2666 19.3992 13.1656L20.0222 14.204C20.2706 14.618 20.4803 14.9675 20.6173 15.2584C20.7558 15.5524 20.8714 15.8877 20.8143 16.2494C20.754 16.6314 20.5574 16.9787 20.2608 17.2269C19.9801 17.4619 19.6331 17.5353 19.3097 17.5678C18.9898 17.6 18.5822 17.6 18.0994 17.6H5.90076C5.41789 17.6 5.01037 17.6 4.69042 17.5678C4.367 17.5353 4.02004 17.4619 3.73929 17.2269C3.44271 16.9787 3.24608 16.6314 3.1858 16.2494C3.12874 15.8877 3.24433 15.5524 3.38282 15.2584C3.51983 14.9675 3.72951 14.618 3.97795 14.204L4.6009 13.1656C5.13596 12.2666 5.47428 11.2643 5.59356 10.2249L5.85157 7.90316ZM12.0001 3.6C9.45928 3.6 7.32482 5.51044 7.04423 8.03568L6.78574 10.3617C6.64712 11.5696 6.25393 12.7345 5.63211 13.7793L5.02318 14.7943C4.75417 15.2427 4.57659 15.5401 4.46845 15.7697C4.41625 15.8805 4.3906 15.9546 4.37885 16.0043C4.37328 16.0279 4.37157 16.0431 4.37108 16.0516C4.37083 16.0558 4.37088 16.0585 4.37095 16.0601L4.37114 16.0623C4.38621 16.1579 4.43537 16.2447 4.50951 16.3067L4.51136 16.3081C4.51263 16.3089 4.51497 16.3104 4.51871 16.3123C4.52623 16.3163 4.54012 16.3226 4.56321 16.33C4.6119 16.3455 4.68865 16.3616 4.81054 16.3739C5.06307 16.3993 5.40943 16.4 5.93229 16.4H18.0678C18.5907 16.4 18.9371 16.3993 19.1896 16.3739C19.3115 16.3616 19.3882 16.3455 19.4369 16.33C19.46 16.3226 19.4739 16.3163 19.4814 16.3123C19.4852 16.3104 19.4875 16.3089 19.4888 16.3081L19.4906 16.3067C19.5648 16.2447 19.6139 16.1579 19.629 16.0623L19.6292 16.0601C19.6292 16.0585 19.6293 16.0558 19.629 16.0516C19.6286 16.0431 19.6268 16.0279 19.6213 16.0043C19.6095 15.9546 19.5839 15.8805 19.5317 15.7697C19.4235 15.5401 19.246 15.2427 18.9769 14.7943L18.368 13.7793C17.7462 12.7345 17.353 11.5696 17.2144 10.3617L16.9559 8.03568C16.6753 5.51044 14.5408 3.6 12.0001 3.6Z" fill="#75787B"/>
<path fill-rule="evenodd" clip-rule="evenodd" d="M14.2264 19.7238C13.6002 20.2843 12.8181 20.6 11.9999 20.6C11.1817 20.6 10.3996 20.2843 9.77341 19.7238C9.14912 19.1649 8.7135 18.3943 8.51734 17.5402C8.44317 17.2172 8.64485 16.8953 8.96781 16.8211C9.29077 16.7469 9.61272 16.9486 9.68689 17.2716C9.83258 17.9059 10.1502 18.4505 10.5738 18.8297C10.9955 19.2072 11.4973 19.4 11.9999 19.4C12.5025 19.4 13.0043 19.2072 13.426 18.8297C13.8496 18.4505 14.1672 17.9059 14.3129 17.2716C14.3871 16.9486 14.709 16.7469 15.032 16.8211C15.3549 16.8953 15.5566 17.2172 15.4824 17.5402C15.2863 18.3943 14.8507 19.1649 14.2264 19.7238Z" fill="#75787B"/>
</svg>
