<svg width="24" height="24" viewBox="0 0 24 24" fill="none" xmlns="http://www.w3.org/2000/svg">
<rect width="24" height="24" rx="12" fill="#EEF3FA"/>
<path fill-rule="evenodd" clip-rule="evenodd" d="M10.0153 6.5C9.51004 6.5 9.04686 6.78158 8.81426 7.23016L8.18331 8.447C7.84787 9.09392 7.17988 9.5 6.45116 9.5C5.92586 9.5 5.50001 9.92584 5.50001 10.4512V14.1429C5.50001 14.9671 5.50317 15.2955 5.56269 15.5563C5.77638 16.4925 6.50747 17.2236 7.44371 17.4373C7.70449 17.4968 8.03291 17.5 8.85716 17.5H15.1429C15.9671 17.5 16.2955 17.4968 16.5563 17.4373C17.4926 17.2236 18.2236 16.4925 18.4373 15.5563C18.4969 15.2955 18.5 14.9671 18.5 14.1429V10.4512C18.5 9.92584 18.0742 9.5 17.5489 9.5C16.8201 9.5 16.1522 9.09392 15.8167 8.447L15.1858 7.23016C14.9532 6.78158 14.49 6.5 13.9847 6.5H10.0153ZM7.92651 6.76984C8.33102 5.9897 9.13656 5.5 10.0153 5.5H13.9847C14.8635 5.5 15.669 5.9897 16.0735 6.76984L16.7045 7.98668C16.868 8.30204 17.1936 8.5 17.5489 8.5C18.6265 8.5 19.5 9.37356 19.5 10.4512V14.1429C19.5 14.1682 19.5 14.1932 19.5 14.2179C19.5001 14.9429 19.5002 15.3936 19.4123 15.7788C19.1131 17.0896 18.0896 18.1131 16.7788 18.4122C16.3936 18.5002 15.9429 18.5001 15.2179 18.5C15.1932 18.5 15.1682 18.5 15.1429 18.5H8.85716C8.83183 18.5 8.80684 18.5 8.78216 18.5C8.05709 18.5001 7.60639 18.5002 7.22119 18.4122C5.91045 18.1131 4.88693 17.0896 4.58777 15.7788C4.49985 15.3936 4.49991 14.9429 4.50001 14.2178C4.50001 14.1932 4.50001 14.1682 4.50001 14.1429V10.4512C4.50001 9.37356 5.37357 8.5 6.45116 8.5C6.8064 8.5 7.13203 8.30204 7.29555 7.98668L7.92651 6.76984Z" fill="#578FFA"/>
<path fill-rule="evenodd" clip-rule="evenodd" d="M12 15C13.1046 15 14 14.1046 14 13C14 11.8954 13.1046 11 12 11C10.8954 11 10 11.8954 10 13C10 14.1046 10.8954 15 12 15ZM12 16C13.6569 16 15 14.6569 15 13C15 11.3431 13.6569 10 12 10C10.3432 10 9.00001 11.3431 9.00001 13C9.00001 14.6569 10.3432 16 12 16Z" fill="#578FFA"/>
</svg>
