<svg width="24" height="24" viewBox="0 0 24 24" fill="none" xmlns="http://www.w3.org/2000/svg">
<path fill-rule="evenodd" clip-rule="evenodd" d="M3.5 12C3.5 7.30558 7.30558 3.5 12 3.5C16.6944 3.5 20.5 7.30558 20.5 12V17.107C20.5 17.5166 20.5 17.8471 20.4833 18.1166C20.4661 18.3935 20.4299 18.6391 20.3424 18.8737C20.089 19.5531 19.5531 20.089 18.8737 20.3424C18.6391 20.4299 18.3935 20.4661 18.1166 20.4833C17.8471 20.5 17.5166 20.5 17.107 20.5H12C7.30558 20.5 3.5 16.6944 3.5 12ZM12 4.5C7.85786 4.5 4.5 7.85786 4.5 12C4.5 16.1421 7.85786 19.5 12 19.5H17.0909C17.5204 19.5 17.8198 19.4998 18.0546 19.4852C18.2855 19.4709 18.4207 19.444 18.5242 19.4054C18.9318 19.2534 19.2534 18.9318 19.4054 18.5242C19.444 18.4207 19.4709 18.2855 19.4852 18.0546C19.4998 17.8198 19.5 17.5204 19.5 17.0909V12C19.5 7.85786 16.1421 4.5 12 4.5Z" fill="#75787B"/>
<path fill-rule="evenodd" clip-rule="evenodd" d="M8.5 11C8.5 10.7239 8.72386 10.5 9 10.5L15 10.5C15.2761 10.5 15.5 10.7239 15.5 11C15.5 11.2761 15.2761 11.5 15 11.5L9 11.5C8.72386 11.5 8.5 11.2761 8.5 11Z" fill="#75787B"/>
<path fill-rule="evenodd" clip-rule="evenodd" d="M11.5 15C11.5 14.7239 11.7239 14.5 12 14.5H15C15.2761 14.5 15.5 14.7239 15.5 15C15.5 15.2761 15.2761 15.5 15 15.5H12C11.7239 15.5 11.5 15.2761 11.5 15Z" fill="#75787B"/>
</svg>
