<svg width="24" height="24" viewBox="0 0 24 24" fill="none" xmlns="http://www.w3.org/2000/svg">
<path fill-rule="evenodd" clip-rule="evenodd" d="M12 20C16.4183 20 20 16.4183 20 12C20 7.58172 16.4183 4 12 4C7.58172 4 4 7.58172 4 12C4 16.4183 7.58172 20 12 20ZM12 21C16.9706 21 21 16.9706 21 12C21 7.02944 16.9706 3 12 3C7.02944 3 3 7.02944 3 12C3 16.9706 7.02944 21 12 21Z" fill="#4D5053"/>
<path fill-rule="evenodd" clip-rule="evenodd" d="M16.384 9.32009L11.0335 15.7407L7.64637 12.3535L8.35348 11.6464L10.9663 14.2593L15.6158 8.6799L16.384 9.32009Z" fill="#4D5053"/>
</svg>
