<svg width="24" height="24" viewBox="0 0 24 24" fill="none" xmlns="http://www.w3.org/2000/svg">
<path fill-rule="evenodd" clip-rule="evenodd" d="M10.6058 5.96737C10.0335 6.34535 9.36217 6.91957 8.42069 7.72655L7.42069 8.5837C6.35506 9.49709 5.94678 9.86113 5.72876 10.3352C5.51073 10.8092 5.50004 11.3561 5.50004 12.7596V17C5.50004 17.9569 5.5011 18.6244 5.5688 19.1279C5.63457 19.6171 5.75487 19.8762 5.93938 20.0607C6.12389 20.2452 6.38294 20.3655 6.87212 20.4312C7.37569 20.4989 8.0431 20.5 9.00004 20.5H15C15.957 20.5 16.6244 20.4989 17.128 20.4312C17.6171 20.3655 17.8762 20.2452 18.0607 20.0607C18.2452 19.8762 18.3655 19.6171 18.4313 19.1279C18.499 18.6244 18.5 17.9569 18.5 17V12.7596C18.5 11.3561 18.4893 10.8092 18.2713 10.3352C18.0533 9.86113 17.645 9.49709 16.5794 8.5837L15.5794 7.72655C14.6379 6.91957 13.9666 6.34535 13.3943 5.96737C12.8337 5.59712 12.4198 5.45123 12 5.45123C11.5803 5.45123 11.1664 5.59712 10.6058 5.96737ZM10.0547 5.13294C10.7032 4.70462 11.31 4.45123 12 4.45123C12.6901 4.45123 13.2969 4.70462 13.9454 5.13294C14.5761 5.54953 15.2945 6.16531 16.2039 6.94481L17.2302 7.82444C17.2608 7.85066 17.291 7.87656 17.3209 7.90216C18.2643 8.71038 18.8591 9.21995 19.1798 9.91731C19.5006 10.6147 19.5004 11.3979 19.5001 12.6402C19.5 12.6795 19.5 12.7193 19.5 12.7596V17.0366C19.5001 17.9483 19.5001 18.6832 19.4224 19.2612C19.3417 19.8612 19.1691 20.3665 18.7678 20.7678C18.3665 21.169 17.8613 21.3416 17.2612 21.4223C16.6832 21.5 15.9484 21.5 15.0366 21.5H8.96344C8.05172 21.5 7.31685 21.5 6.73887 21.4223C6.1388 21.3416 5.63355 21.169 5.23227 20.7678C4.83099 20.3665 4.6584 19.8612 4.57772 19.2612C4.50001 18.6832 4.50003 17.9483 4.50004 17.0366L4.50004 12.7596C4.50004 12.7193 4.50003 12.6795 4.50002 12.6402C4.4997 11.3979 4.49951 10.6147 4.82024 9.91731C5.14098 9.21995 5.73579 8.71038 6.67918 7.90217C6.70907 7.87656 6.73931 7.85066 6.7699 7.82444L7.79615 6.9448C8.70554 6.16531 9.42394 5.54953 10.0547 5.13294Z" fill="#4D5053"/>
<path fill-rule="evenodd" clip-rule="evenodd" d="M9 16C9 15.1716 9.67157 14.5 10.5 14.5H13.5C14.3284 14.5 15 15.1716 15 16V21C15 21.2761 14.7761 21.5 14.5 21.5C14.2239 21.5 14 21.2761 14 21V16C14 15.7239 13.7761 15.5 13.5 15.5H10.5C10.2239 15.5 10 15.7239 10 16V21C10 21.2761 9.77614 21.5 9.5 21.5C9.22386 21.5 9 21.2761 9 21V16Z" fill="#4D5053"/>
</svg>
