<svg width="98" height="24" viewBox="0 0 98 24" fill="none" xmlns="http://www.w3.org/2000/svg">
<path d="M90.7259 1.29749V23.1622H94.5008V1.29749H90.7259ZM86.951 2.35888H75.933V5.42512H83.1761V7.09976C83.1761 10.9679 81.3594 13.2322 75.5791 17.2419L77.7497 20.0016C85.3939 14.6238 86.951 11.6048 86.951 7.52432V2.35888Z" fill="black"/>
<path d="M52.4657 2.38246V5.44871H57.0899V8.20832C57.0899 10.6141 56.5473 11.5812 55.1317 13.1851C53.9284 14.5295 52.5364 15.9447 51.3332 17.1004L53.952 19.577C55.462 18.0675 56.9955 16.4636 58.246 14.8833C58.5527 14.5059 58.7886 14.2465 59.001 13.8455C59.2605 14.1993 59.4964 14.4823 59.8031 14.8597C61.0536 16.3221 62.7759 17.926 64.3094 19.3411L66.6687 16.8646C65.3947 15.7088 64.0971 14.5295 62.8702 13.1851C61.3131 11.4868 60.912 10.4019 60.912 8.20832V5.44871H65.2767V2.38246H52.4657ZM68.1315 1.29749V23.1622H71.9064V1.29749H68.1315Z" fill="black"/>
<path d="M44.1409 1.12573V8.55547H42.3478V1.24367H38.8796V14.6408C38.0303 15.6786 36.9686 15.655 35.1047 15.655H31.3534V5.25337H37.2989V2.18712H27.8145V18.7212H35.0576C36.6855 18.7212 38.2426 18.5797 38.8796 17.4476V22.5187H42.3478V11.6217H44.1409V22.9904H47.6563V1.12573H44.1409Z" fill="black"/>
<path d="M5.31286 8.76775H21.9461V5.91379H9.04058V3.9797H21.8281V1.12573H5.31286V8.76775ZM9.3237 18.6977C9.3237 17.8014 10.4798 17.0702 13.5705 17.0702C16.6612 17.0702 17.8172 17.8014 17.8172 18.6977C17.8172 19.5939 16.6612 20.3251 13.5705 20.3251C10.4798 20.3251 9.3237 19.5939 9.3237 18.6977ZM5.5488 18.6977C5.5488 21.3629 8.00249 23.1791 13.5705 23.1791C19.1385 23.1791 21.5922 21.3629 21.5922 18.6977C21.5922 16.0324 19.1385 14.2162 13.5705 14.2162C8.00249 14.2162 5.5488 16.0324 5.5488 18.6977ZM3.00073 10.0886V13.0369H24.1402V10.0886H3.00073Z" fill="black"/>
</svg>
