<svg width="30" height="29" viewBox="0 0 30 29" fill="none" xmlns="http://www.w3.org/2000/svg">
<path d="M24.5556 10.8182C24.5556 14.4546 22.1632 17.8908 19.6802 20.4641C18.4483 21.7408 17.2148 22.7838 16.2888 23.5078C15.8261 23.8695 15.4411 24.1509 15.1726 24.3413C15.1082 24.387 15.0504 24.4274 15 24.4625C14.9496 24.4274 14.8918 24.387 14.8274 24.3413C14.5589 24.1509 14.1739 23.8695 13.7112 23.5078C12.7852 22.7838 11.5517 21.7408 10.3198 20.4641C7.83684 17.8908 5.44444 14.4546 5.44444 10.8182C5.44444 5.64886 9.71489 1.44444 15 1.44444C20.2851 1.44444 24.5556 5.64886 24.5556 10.8182Z" fill="#68D833" stroke="#68D833" stroke-width="0.888889" stroke-linecap="round" stroke-linejoin="round"/>
<g filter="url(#filter0_dd_838_2625)">
<path d="M9.11666 10.382C8.72906 10.6768 8.16431 10.4067 8.16431 9.92659C8.16431 9.74855 8.24838 9.58047 8.39211 9.47117L13.9743 5.22593C14.4153 4.8906 14.6357 4.72293 14.8922 4.72293C15.1487 4.72293 15.3692 4.8906 15.8101 5.22592L17.882 6.80157V5.48423C17.882 5.28239 18.0493 5.11876 18.2558 5.11876H19.0033C19.2097 5.11876 19.3771 5.28239 19.3771 5.48423V7.93858L21.3923 9.47117C21.5361 9.58047 21.6201 9.74855 21.6201 9.92659C21.6201 10.4067 21.0554 10.6768 20.6678 10.382L20.086 9.93959C20.125 10.1817 20.125 10.488 20.125 10.9358V15.0781C20.125 15.7672 20.125 16.1118 19.906 16.3259C19.6871 16.54 19.3347 16.54 18.6299 16.54H11.1544C10.4496 16.54 10.0972 16.54 9.87829 16.3259C9.65934 16.1118 9.65934 15.7672 9.65934 15.0781V10.9358C9.65934 10.4881 9.65934 10.1818 9.69828 9.9397L9.11666 10.382Z" fill="#D4F25B"/>
</g>
<mask id="mask0_838_2625" style="mask-type:alpha" maskUnits="userSpaceOnUse" x="8" y="11" width="14" height="4">
<path d="M8.67139 11.7115C8.67139 11.4027 8.92741 11.1523 9.24324 11.1523H11.1018C11.4176 11.1523 11.6736 11.4027 11.6736 11.7115V14.2276C11.6736 14.5364 11.4176 14.7868 11.1018 14.7868H9.24324C8.92741 14.7868 8.67139 14.5364 8.67139 14.2276V11.7115Z" fill="#FFEEE5"/>
<path d="M12.8176 11.7115C12.8176 11.4027 13.0737 11.1523 13.3895 11.1523H15.8198C16.1357 11.1523 16.3917 11.4027 16.3917 11.7115V14.2276C16.3917 14.5364 16.1357 14.7867 15.8198 14.7867H13.3895C13.0737 14.7867 12.8176 14.5364 12.8176 14.2276V11.7115Z" fill="#FFEEE5"/>
<path d="M17.5352 11.7115C17.5352 11.4027 17.7912 11.1523 18.107 11.1523H20.5374C20.8532 11.1523 21.1092 11.4027 21.1092 11.7115V14.2276C21.1092 14.5364 20.8532 14.7867 20.5374 14.7867H18.107C17.7912 14.7867 17.5352 14.5364 17.5352 14.2276V11.7115Z" fill="#FFEEE5"/>
</mask>
<g mask="url(#mask0_838_2625)">
<path fill-rule="evenodd" clip-rule="evenodd" d="M9.82795 9.52816C9.67334 9.83421 9.67334 10.1887 9.67334 10.8976V15.0399C9.67334 15.729 9.67334 16.0736 9.89229 16.2877C10.1112 16.5018 10.4636 16.5018 11.1684 16.5018H18.6439C19.3487 16.5018 19.7011 16.5018 19.92 16.2877C20.139 16.0736 20.139 15.729 20.139 15.0399V10.8976C20.139 10.1887 20.139 9.83421 19.9844 9.52816C19.8298 9.22211 19.5419 9.00668 18.9661 8.57581L15.8148 6.21771C15.3779 5.89075 15.1594 5.72726 14.9062 5.72726C14.6529 5.72726 14.4345 5.89075 13.9975 6.21771L10.8462 8.57581C10.2704 9.00668 9.98255 9.22211 9.82795 9.52816Z" fill="white"/>
</g>
<defs>
<filter id="filter0_dd_838_2625" x="0.164306" y="0.278486" width="29.4558" height="27.817" filterUnits="userSpaceOnUse" color-interpolation-filters="sRGB">
<feFlood flood-opacity="0" result="BackgroundImageFix"/>
<feColorMatrix in="SourceAlpha" type="matrix" values="0 0 0 0 0 0 0 0 0 0 0 0 0 0 0 0 0 0 127 0" result="hardAlpha"/>
<feOffset dy="1.77778"/>
<feGaussianBlur stdDeviation="0.888889"/>
<feColorMatrix type="matrix" values="0 0 0 0 0 0 0 0 0 0 0 0 0 0 0 0 0 0 0.1 0"/>
<feBlend mode="normal" in2="BackgroundImageFix" result="effect1_dropShadow_838_2625"/>
<feColorMatrix in="SourceAlpha" type="matrix" values="0 0 0 0 0 0 0 0 0 0 0 0 0 0 0 0 0 0 127 0" result="hardAlpha"/>
<feMorphology radius="2.66667" operator="dilate" in="SourceAlpha" result="effect2_dropShadow_838_2625"/>
<feOffset dy="3.55556"/>
<feGaussianBlur stdDeviation="2.66667"/>
<feColorMatrix type="matrix" values="0 0 0 0 0 0 0 0 0 0 0 0 0 0 0 0 0 0 0.1 0"/>
<feBlend mode="normal" in2="effect1_dropShadow_838_2625" result="effect2_dropShadow_838_2625"/>
<feBlend mode="normal" in="SourceGraphic" in2="effect2_dropShadow_838_2625" result="shape"/>
</filter>
</defs>
</svg>
