<svg width="24" height="24" viewBox="0 0 24 24" fill="none" xmlns="http://www.w3.org/2000/svg">
<path fill-rule="evenodd" clip-rule="evenodd" d="M12 4.5C8.41015 4.5 5.5 7.41015 5.5 11C5.5 13.327 6.68593 15.2164 8.09996 16.6426C9.51351 18.0684 11.1132 18.9872 11.8322 19.3601C11.9407 19.4164 12.0593 19.4164 12.1678 19.3601C12.8868 18.9872 14.4865 18.0684 15.9 16.6426C17.3141 15.2164 18.5 13.327 18.5 11C18.5 7.41015 15.5899 4.5 12 4.5ZM4.5 11C4.5 6.85786 7.85786 3.5 12 3.5C16.1421 3.5 19.5 6.85786 19.5 11C19.5 13.6894 18.1264 15.8173 16.6102 17.3467C15.0935 18.8765 13.3922 19.8516 12.6283 20.2478C12.231 20.4538 11.769 20.4538 11.3717 20.2478C10.6078 19.8516 8.9065 18.8765 7.38981 17.3467C5.87358 15.8173 4.5 13.6894 4.5 11ZM12 8.5C10.6193 8.5 9.5 9.61929 9.5 11C9.5 12.3807 10.6193 13.5 12 13.5C13.3807 13.5 14.5 12.3807 14.5 11C14.5 9.61929 13.3807 8.5 12 8.5ZM8.5 11C8.5 9.067 10.067 7.5 12 7.5C13.933 7.5 15.5 9.067 15.5 11C15.5 12.933 13.933 14.5 12 14.5C10.067 14.5 8.5 12.933 8.5 11Z" fill="#75787B"/>
</svg>
