<svg width="24" height="24" viewBox="0 0 24 24" fill="none" xmlns="http://www.w3.org/2000/svg">
<path fill-rule="evenodd" clip-rule="evenodd" d="M11 5.5C7.96243 5.5 5.5 7.96243 5.5 11C5.5 14.0376 7.96243 16.5 11 16.5C14.0376 16.5 16.5 14.0376 16.5 11C16.5 7.96243 14.0376 5.5 11 5.5ZM4.5 11C4.5 7.41015 7.41015 4.5 11 4.5C14.5899 4.5 17.5 7.41015 17.5 11C17.5 14.5899 14.5899 17.5 11 17.5C7.41015 17.5 4.5 14.5899 4.5 11Z" fill="#4D5053"/>
<path fill-rule="evenodd" clip-rule="evenodd" d="M16.6464 16.6464C16.8417 16.4512 17.1583 16.4512 17.3536 16.6464L20.3536 19.6464C20.5488 19.8417 20.5488 20.1583 20.3536 20.3536C20.1583 20.5488 19.8417 20.5488 19.6464 20.3536L16.6464 17.3536C16.4512 17.1583 16.4512 16.8417 16.6464 16.6464Z" fill="#4D5053"/>
</svg>
