<svg width="24" height="24" viewBox="0 0 24 24" fill="none" xmlns="http://www.w3.org/2000/svg">
<circle cx="12" cy="10" r="3" fill="#75787B"/>
<circle cx="12" cy="12" r="9" stroke="#75787B" stroke-width="1.2"/>
<path d="M17.8719 18.8083C17.9489 18.7468 17.9799 18.6436 17.9452 18.5513C17.5693 17.5518 16.8134 16.6706 15.7814 16.0332C14.6966 15.3632 13.3674 15 12 15C10.6326 15 9.30341 15.3632 8.21858 16.0332C7.18663 16.6706 6.43066 17.5518 6.05477 18.5513C6.02009 18.6436 6.05115 18.7468 6.12813 18.8083V18.8083C9.56196 21.552 14.438 21.552 17.8719 18.8083V18.8083Z" fill="#EDF0F3" stroke="#75787B" stroke-width="1.2" stroke-linecap="round"/>
<rect x="13" y="15" width="8" height="8" rx="4" fill="#EEF3FA"/>
<path fill-rule="evenodd" clip-rule="evenodd" d="M16.3384 17.1667C16.17 17.1667 16.0156 17.2605 15.9381 17.4101L15.7278 17.8157C15.616 18.0313 15.3933 18.1667 15.1504 18.1667C14.9753 18.1667 14.8333 18.3086 14.8333 18.4837V19.7143C14.8333 19.989 14.8344 20.0985 14.8542 20.1854C14.9255 20.4975 15.1692 20.7412 15.4812 20.8124C15.5682 20.8323 15.6776 20.8333 15.9524 20.8333H18.0476C18.3224 20.8333 18.4318 20.8323 18.5188 20.8124C18.8309 20.7412 19.0745 20.4975 19.1458 20.1854C19.1656 20.0985 19.1667 19.989 19.1667 19.7143V18.4837C19.1667 18.3086 19.0247 18.1667 18.8496 18.1667C18.6067 18.1667 18.3841 18.0313 18.2722 17.8157L18.0619 17.4101C17.9844 17.2605 17.83 17.1667 17.6616 17.1667H16.3384ZM15.6422 17.2566C15.777 16.9966 16.0455 16.8333 16.3384 16.8333H17.6616C17.9545 16.8333 18.223 16.9966 18.3578 17.2566L18.5682 17.6622C18.6227 17.7674 18.7312 17.8333 18.8496 17.8333C19.2088 17.8333 19.5 18.1245 19.5 18.4837V19.7143C19.5 19.7227 19.5 19.7311 19.5 19.7393C19.5 19.981 19.5001 20.1312 19.4708 20.2596C19.371 20.6965 19.0299 21.0377 18.5929 21.1374C18.4645 21.1667 18.3143 21.1667 18.0726 21.1667C18.0644 21.1667 18.0561 21.1667 18.0476 21.1667H15.9524C15.9439 21.1667 15.9356 21.1667 15.9274 21.1667C15.6857 21.1667 15.5355 21.1667 15.4071 21.1374C14.9702 21.0377 14.629 20.6965 14.5293 20.2596C14.4999 20.1312 14.5 19.981 14.5 19.7393C14.5 19.7311 14.5 19.7227 14.5 19.7143V18.4837C14.5 18.1245 14.7912 17.8333 15.1504 17.8333C15.2688 17.8333 15.3773 17.7674 15.4319 17.6622L15.6422 17.2566Z" fill="#578FFA"/>
<path fill-rule="evenodd" clip-rule="evenodd" d="M17 20C17.3682 20 17.6667 19.7015 17.6667 19.3333C17.6667 18.9651 17.3682 18.6667 17 18.6667C16.6318 18.6667 16.3333 18.9651 16.3333 19.3333C16.3333 19.7015 16.6318 20 17 20ZM17 20.3333C17.5523 20.3333 18 19.8856 18 19.3333C18 18.7811 17.5523 18.3333 17 18.3333C16.4477 18.3333 16 18.7811 16 19.3333C16 19.8856 16.4477 20.3333 17 20.3333Z" fill="#578FFA"/>
</svg>
