<svg width="24" height="24" viewBox="0 0 24 24" fill="none" xmlns="http://www.w3.org/2000/svg">
<path fill-rule="evenodd" clip-rule="evenodd" d="M6.88052 16.8065C8.36044 15.9548 10.1597 15.5 12 15.5C13.8403 15.5 15.6396 15.9548 17.1195 16.8065C18.5991 17.658 19.6952 18.8708 20.1983 20.2789C20.2912 20.5389 20.1557 20.825 19.8956 20.9179C19.6356 21.0108 19.3495 20.8754 19.2566 20.6153C18.848 19.4718 17.9354 18.4298 16.6207 17.6732C15.3063 16.9168 13.6819 16.5 12 16.5C10.3181 16.5 8.69369 16.9168 7.37931 17.6732C6.06464 18.4298 5.15198 19.4718 4.74345 20.6153C4.65054 20.8753 4.36442 21.0108 4.10438 20.9179C3.84433 20.825 3.70884 20.5389 3.80174 20.2789C4.30481 18.8708 5.40088 17.658 6.88052 16.8065Z" fill="#75787B"/>
<path fill-rule="evenodd" clip-rule="evenodd" d="M12 4.5C10.067 4.5 8.5 6.067 8.5 8C8.5 9.933 10.067 11.5 12 11.5C13.933 11.5 15.5 9.933 15.5 8C15.5 6.067 13.933 4.5 12 4.5ZM7.5 8C7.5 5.51472 9.51472 3.5 12 3.5C14.4853 3.5 16.5 5.51472 16.5 8C16.5 10.4853 14.4853 12.5 12 12.5C9.51472 12.5 7.5 10.4853 7.5 8Z" fill="#75787B"/>
</svg>
