<svg width="24" height="24" viewBox="0 0 24 24" fill="none" xmlns="http://www.w3.org/2000/svg">
<path fill-rule="evenodd" clip-rule="evenodd" d="M12 15C13.6569 15 15 13.6569 15 12C15 10.3431 13.6569 9 12 9C10.3431 9 9 10.3431 9 12C9 13.6569 10.3431 15 12 15ZM12 16C14.2091 16 16 14.2091 16 12C16 9.79086 14.2091 8 12 8C9.79086 8 8 9.79086 8 12C8 14.2091 9.79086 16 12 16Z" fill="#4D5053"/>
<path fill-rule="evenodd" clip-rule="evenodd" d="M7.36714 8.22646C6.00006 9.21001 4.89306 10.4082 4.19792 11.2522C3.77356 11.7674 3.72974 11.8565 3.72974 12C3.72974 12.1435 3.77356 12.2326 4.19792 12.7478C4.89306 13.5918 6.00006 14.79 7.36714 15.7735C8.73816 16.7599 10.3282 17.5 12 17.5C13.6718 17.5 15.2619 16.7599 16.6329 15.7735C18 14.79 19.107 13.5918 19.8021 12.7478C20.2265 12.2326 20.2703 12.1435 20.2703 12C20.2703 11.8565 20.2265 11.7674 19.8021 11.2522C19.107 10.4082 18 9.21001 16.6329 8.22646C15.2619 7.24007 13.6718 6.5 12 6.5C10.3282 6.5 8.73816 7.24007 7.36714 8.22646ZM6.78312 7.41472C8.24216 6.365 10.0361 5.5 12 5.5C13.9639 5.5 15.7579 6.365 17.2169 7.41472C18.6799 8.46727 19.849 9.73623 20.574 10.6164C20.5936 10.6403 20.6133 10.664 20.6328 10.6876C20.9633 11.087 21.2703 11.4579 21.2703 12C21.2703 12.5421 20.9633 12.913 20.6328 13.3124C20.6133 13.336 20.5936 13.3597 20.574 13.3836C19.849 14.2638 18.6799 15.5327 17.2169 16.5853C15.7579 17.635 13.9639 18.5 12 18.5C10.0361 18.5 8.24216 17.635 6.78312 16.5853C5.32014 15.5327 4.15099 14.2638 3.42604 13.3836C3.40639 13.3597 3.38677 13.336 3.36723 13.3124C3.0367 12.913 2.72974 12.5421 2.72974 12C2.72974 11.4579 3.03671 11.087 3.36723 10.6876C3.38677 10.664 3.40639 10.6403 3.42604 10.6164C4.15099 9.73623 5.32014 8.46727 6.78312 7.41472Z" fill="#4D5053"/>
</svg>
